Coordinates
nRows=4
nColumns=38

# SIMM Motion File Header:
name Coordinates
datacolumns 38
datarows 4
otherdata 1
range 1.33749999999999990000 1.34049999999999980000

Units are S.I. units (second, meters, Newtons, ...)
Angles are in degrees.

endheader
time	pelvis_tilt	pelvis_list	pelvis_rotation	pelvis_tx	pelvis_ty	pelvis_tz	hip_flexion_r	hip_adduction_r	hip_rotation_r	knee_angle_r	ankle_angle_r	subtalar_angle_r	mtp_angle_r	hip_flexion_l	hip_adduction_l	hip_rotation_l	knee_angle_l	ankle_angle_l	subtalar_angle_l	mtp_angle_l	lumbar_extension	lumbar_bending	lumbar_rotation	arm_flex_r	arm_add_r	arm_rot_r	elbow_flex_r	pro_sup_r	wrist_flex_r	wrist_dev_r	arm_flex_l	arm_add_l	arm_rot_l	elbow_flex_l	pro_sup_l	wrist_flex_l	wrist_dev_l
      1.33749999999999990000	     -7.99879197450614400000	     -5.85447617163792880000	     -8.56542321293639470000	      1.18474857803759500000	      0.98086321945526089000	     -0.33661725259313457000	     36.08032300920206800000	     13.22598598226970500000	      4.17102986480860500000	    -15.75555403710251500000	     16.73928297322797900000	      0.00000000000000000000	      0.00000000000000000000	    -27.62937654748880700000	      7.48510524311917180000	     14.41703956187847900000	    -30.89729347950939300000	    -25.53230580292395400000	      0.00000000000000000000	      0.00000000000000000000	    -10.46092313108729000000	     11.92702683663193000000	     -6.63943051897111580000	    -56.59690153407584000000	    -16.53465167061859700000	    -13.19544692355070500000	    135.23154881470779000000	     96.84240904022603000000	      0.00000000000000000000	      0.00000000000000000000	     -6.92518202388597630000	    -20.23635057140401000000	     12.95775198674632000000	    137.41221852990546000000	     91.34434354829369300000	      0.00000000000000000000	      0.00000000000000000000
      1.33849999999999980000	     -7.87556310084870590000	     -5.85526307258599750000	     -8.55628627972094340000	      1.18502008535599560000	      0.98057713972465343000	     -0.33663101875515200000	     35.72644205948292800000	     13.19260503825774400000	      4.28822529550086620000	    -15.24386778219111000000	     16.69995095307960400000	     -0.00000000000000000039	     -0.00000000000000000044	    -27.57076355510268000000	      7.53176332287787260000	     14.04047357745719900000	    -31.57829123423941600000	    -25.45201669750305500000	      0.00000000000000000167	      0.00000000000000000027	    -10.61075633447508600000	     11.91865237738190500000	     -6.56326036063518980000	    -56.37648146699434200000	    -16.61775645369824200000	    -13.13589986744011100000	    135.15760094195301000000	     96.84730795242023800000	     -0.00000000000000000002	      0.00000000000000000025	     -7.01903934748898980000	    -20.22756874747906900000	     12.98376504935680100000	    137.22166539816126000000	     91.40610439272263900000	      0.00000000000000000009	     -0.00000000000000000038
      1.33949999999999990000	     -7.75398645629307560000	     -5.85772565899351430000	     -8.54514356969880500000	      1.18528941395470210000	      0.98027968047689118000	     -0.33664495244092679000	     35.37836321907754900000	     13.15927582284492400000	      4.39666442347118560000	    -14.75149420798731700000	     16.65070846092787000000	     -0.00000000000000000280	     -0.00000000000000000090	    -27.50565589882272400000	      7.57079562598177700000	     13.65644322997499000000	    -32.26627978492138000000	    -25.37090301808520100000	      0.00000000000000000417	      0.00000000000000000227	    -10.75817486639125100000	     11.91232210504826700000	     -6.48805532773124140000	    -56.15436856531565700000	    -16.70138837920031700000	    -13.07604117646567600000	    135.08145314539206000000	     96.85053712443043100000	      0.00000000000000000009	      0.00000000000000000077	     -7.11382998771202770000	    -20.21666447560194200000	     13.00718695984184200000	    137.02691183976270000000	     91.46854221265218100000	      0.00000000000000000015	     -0.00000000000000000013
      1.34049999999999980000	     -7.63412116525336160000	     -5.86181515910882660000	     -8.53195862144225890000	      1.18555645139826480000	      0.97997069410452031000	     -0.33665910179291764000	     35.03643434864443400000	     13.12604395049746000000	      4.49609959448108310000	    -14.27911420564605300000	     16.59207684147958500000	     -0.00000000000000000296	     -0.00000000000000000427	    -27.43416759231433800000	      7.60215804140790220000	     13.26567848698230100000	    -32.96095270563655800000	    -25.28890804949671500000	      0.00000000000000000302	      0.00000000000000000751	    -10.90308832106169700000	     11.90801718792774200000	     -6.41384968435472210000	    -55.93058064272555900000	    -16.78557032842477200000	    -13.01585186889484200000	    135.00310755955547000000	     96.85209063117291400000	     -0.00000000000000000007	      0.00000000000000000174	     -7.20955848291689170000	    -20.20366806201023700000	     13.02805149095281200000	    136.82801247633608000000	     91.53154312573318000000	      0.00000000000000000069	      0.00000000000000000044
